<svg xmlns="http://www.w3.org/2000/svg" viewBox="0 0 30 30" width="50px" height="50px">
  <path d="M 2 2 A 1.0001 1.0001 0 1 0 2 4 L 3.8789062 4 C 4.1048086 4 4.2933102 4.1414634 4.3574219 4.359375 L 8.6191406 18.847656 C 8.993174 20.11937 10.169409 21 11.496094 21 L 22.472656 21 C 23.821072 21 25.011657 20.088693 25.367188 18.789062 L 27.964844 9.2636719 A 1.0001 1.0001 0 0 0 27 8 L 7.5136719 8 L 6.2773438 3.7949219 A 1.0001 1.0001 0 0 0 6.2753906 3.7949219 C 5.9634991 2.7348335 4.9830041 2 3.8789062 2 L 2 2 z M 12 23 A 2 2 0 0 0 10 25 A 2 2 0 0 0 12 27 A 2 2 0 0 0 14 25 A 2 2 0 0 0 12 23 z M 22 23 A 2 2 0 0 0 20 25 A 2 2 0 0 0 22 27 A 2 2 0 0 0 24 25 A 2 2 0 0 0 22 23 z" fill="#000000" />
</svg>8-4.75c2.676,0,4.983,1.564,6.074,3.823 C41.627,35.637,40.999,36,40.3,36z" opacity=".4" />
  <path fill="#0ac06e" d="M40.3,36H30.26c0.825-2.329,3.04-4,5.651-4c2.476,0,4.601,1.501,5.518,3.642 C41.105,35.866,40.717,36,40.3,36z" opacity=".5" />
  <linearGradient id="iQVNS8pDAnxshzmcu3Wpra" x1="72" x2="72" y1="43.12" y2="31.12" gradientTransform="matrix(-1 0 0 1 107.912 0)" gradientUnits="userSpaceOnUse">
    <stop offset="0" stop-color="#00bc73" />
    <stop offset=".762" stop-color="#5bdd46" />
    <stop offset="1" stop-color="#78e837" />
  </linearGradient>
  <circle cx="35.912" cy="38" r="6" fill="url(#iQVNS8pDAnxshzmcu3Wpra)" />
  <path fill="#36a368" d="M35.912,32c3.195,0,5.8,2.5,5.982,5.649C41.4,37.867,40.863,38,40.3,38H29.912 C29.912,34.686,32.598,32,35.912,32z" opacity=".1" />
  <path fill="#36a368" d="M35.912,32c3.034,0,5.535,2.254,5.937,5.177c-0.52,0.266-1.361,0.423-1.924,0.423h-9.992 C30.139,34.474,32.733,32,35.912,32z" opacity=".2" />
  <path fill="#36a368" d="M35.912,32c2.876,0,5.277,2.025,5.862,4.726c-0.07,0.032-0.132,0.08-0.204,0.107 c-0.372,0.233-1.56,0.367-2.02,0.367h-9.578C30.363,34.266,32.87,32,35.912,32z" opacity=".3" />
  <path fill="#36a368" d="M35.912,32c2.738,0,5.043,1.836,5.763,4.343c-0.17,0.086-0.343,0.167-0.529,0.212 c-0.248,0.156-1.666,0.245-1.972,0.245h-9.141C30.588,34.061,33.009,32,35.912,32z" opacity=".4" />
  <path fill="#36a368" d="M35.912,32c2.602,0,4.811,1.66,5.643,3.976c-0.256,0.149-0.53,0.265-0.831,0.301 c-0.124,0.078-1.772,0.122-1.925,0.122h-8.664C30.835,33.864,33.153,32,35.912,32z" opacity=".5" />
  <path fill="#36a368" d="M35.912,32c2.476,0,4.601,1.501,5.518,3.642C41.105,35.866,40.717,36,40.3,36H30.26 C31.085,33.671,33.3,32,35.912,32z" opacity=".6" />
  <path fill="#0ac06e" d="M13.658,34.425c0.2,0.919,1.013,1.575,1.954,1.575h13.156c-0.913-4.002-4.494-7-8.768-7 c-2.746,0-5.204,1.239-6.857,3.184L13.658,34.425z" opacity=".1" />
  <path fill="#0ac06e" d="M13.658,34.425c0.2,0.919,1.013,1.575,1.954,1.575h12.383 c-0.897-3.585-4.135-6.25-7.995-6.25c-2.725,0-5.138,1.333-6.641,3.374L13.658,34.425z" opacity=".2" />
  <path fill="#0ac06e" d="M13.658,34.425c0.2,0.919,1.013,1.575,1.954,1.575h11.609 c-0.878-3.168-3.777-5.5-7.221-5.5c-2.719,0-5.096,1.456-6.411,3.626L13.658,34.425z" opacity=".3" />
  <path fill="#0ac06e" d="M15.612,36h10.836c-0.853-2.75-3.418-4.75-6.448-4.75c-2.676,0-4.983,1.564-6.074,3.823 C14.284,35.637,14.912,36,15.612,36z" opacity=".4" />
  <path fill="#0ac06e" d="M15.612,36h10.039c-0.825-2.329-3.04-4-5.651-4c-2.476,0-4.601,1.501-5.518,3.642 C14.807,35.866,15.195,36,15.612,36z" opacity=".5" />
  <linearGradient id="iQVNS8pDAnxshzmcu3Wprb" x1="20" x2="20" y1="42.826" y2="30.826" gradientUnits="userSpaceOnUse">
    <stop offset="0" stop-color="#00bc73" />
    <stop offset=".762" stop-color="#5bdd46" />
    <stop offset="1" stop-color="#78e837" />
  </linearGradient>
  <circle cx="20" cy="38" r="6" fill="url(#iQVNS8pDAnxshzmcu3Wprb)" />
  <g>
    <path fill="#36a368" d="M20,32c-3.195,0-5.8,2.5-5.982,5.649C14.512,37.867,15.049,38,15.612,38H26 C26,34.686,23.314,32,20,32z" opacity=".1" />
    <path fill="#36a368" d="M20,32c-3.034,0-5.535,2.254-5.937,5.177c0.52,0.266,1.361,0.423,1.924,0.423h9.992 C25.773,34.474,23.179,32,20,32z" opacity=".2" />
    <path fill="#36a368" d="M20,32c-2.876,0-5.277,2.025-5.862,4.726c0.07,0.032,0.132,0.08,0.204,0.107 c0.372,0.233,1.56,0.367,2.02,0.367h9.578C25.549,34.266,23.042,32,20,32z" opacity=".3" />
    <path fill="#36a368" d="M20,32c-2.738,0-5.043,1.836-5.763,4.343c0.17,0.086,0.343,0.167,0.529,0.212 c0.248,0.156,1.666,0.245,1.972,0.245h9.141C25.324,34.061,22.903,32,20,32z" opacity=".4" />
    <path fill="#36a368" d="M20,32c-2.602,0-4.811,1.66-5.643,3.976c0.256,0.149,0.53,0.265,0.831,0.301 c0.124,0.078,1.772,0.122,1.925,0.122h8.664C25.077,33.864,22.759,32,20,32z" opacity=".5" />
    <path fill="#36a368" d="M20,32c-2.476,0-4.601,1.501-5.518,3.642C14.807,35.866,15.195,36,15.612,36h10.039 C24.827,33.671,22.611,32,20,32z" opacity=".6" />
  </g>
  <linearGradient id="iQVNS8pDAnxshzmcu3Wprc" x1="23.76" x2="23.76" y1="46.925" y2="16.989" gradientUnits="userSpaceOnUse">
    <stop offset="0" stop-color="#01fff7" stop-opacity=".2" />
    <stop offset="1" stop-color="#01fff7" stop-opacity=".4" />
  </linearGradient>
  <path fill="url(#iQVNS8pDAnxshzmcu3Wprc)" d="M44.518,14H13.1l-1.888-8.437 C11.008,4.649,10.197,4,9.261,4H3C1.896,4,1,4.896,1,6s0.896,2,2,2h4.659l1.855,8.287c0.007,0.046,0.004,0.091,0.014,0.138l4.13,18 c0.2,0.919,1.013,1.575,1.954,1.575h24.776c0.941,0,1.755-0.656,1.954-1.575l4.13-18C46.744,15.178,45.794,14,44.518,14z M36.5,28 h-17c-0.828,0-1.5-0.672-1.5-1.5s0.672-1.5,1.5-1.5h17c0.828,0,1.5,0.672,1.5,1.5S37.328,28,36.5,28z M37.5,22h-19 c-0.828,0-1.5-0.672-1.5-1.5s0.672-1.5,1.5-1.5h19c0.828,0,1.5,0.672,1.5,1.5S38.328,22,37.5,22z" />
  <linearGradient id="iQVNS8pDAnxshzmcu3Wprd" x1="23.76" x2="23.76" y1="37.348" y2="8.245" gradientUnits="userSpaceOnUse">
    <stop offset="0" stop-color="#fff" stop-opacity=".2" />
    <stop offset="1" stop-color="#278eff" stop-opacity=".2" />
  </linearGradient>
  <path fill="url(#iQVNS8pDAnxshzmcu3Wprd)" d="M9.261,4.5 c0.707,0,1.309,0.482,1.464,1.173l1.888,8.437L12.7,14.5h0.4h31.418c0.456,0,0.882,0.204,1.168,0.559s0.395,0.814,0.299,1.254 l-4.132,18.006c-0.149,0.685-0.765,1.181-1.466,1.181H15.612c-0.7,0-1.317-0.497-1.467-1.187l-4.127-17.995 c-0.002-0.034-0.004-0.069-0.016-0.14L8.147,7.891L8.059,7.5h-0.4H3C2.173,7.5,1.5,6.827,1.5,6S2.173,4.5,3,4.5H9.261 M18.5,22.5h19 c1.103,0,2-0.897,2-2s-0.897-2-2-2h-19c-1.103,0-2,0.897-2,2S17.397,22.5,18.5,22.5 M19.5,28.5h17c1.103,0,2-0.897,2-2s-0.897-2-2-2 h-17c-1.103,0-2,0.897-2,2S18.397,28.5,19.5,28.5 M9.261,4H3C1.896,4,1,4.896,1,6s0.896,2,2,2h4.659l1.855,8.287 c0.007,0.046,0.004,0.091,0.014,0.138l4.13,18c0.2,0.919,1.013,1.575,1.954,1.575h24.776c0.941,0,1.755-0.656,1.954-1.575l4.13-18 C46.744,15.178,45.794,14,44.518,14H13.1l-1.888-8.437C11.008,4.649,10.197,4,9.261,4L9.261,4z M18.5,22c-0.828,0-1.5-0.672-1.5-1.5 s0.672-1.5,1.5-1.5h19c0.828,0,1.5,0.672,1.5,1.5S38.328,22,37.5,22H18.5L18.5,22z M19.5,28c-0.828,0-1.5-0.672-1.5-1.5 s0.672-1.5,1.5-1.5h17c0.828,0,1.5,0.672,1.5,1.5S37.328,28,36.5,28H19.5L19.5,28z" />
</svg>